<mxfile host="app.diagrams.net" modified="2022-10-09T03:28:25.261Z" agent="5.0 (Macintosh; Intel Mac OS X 10_15_7) AppleWebKit/537.36 (KHTML, like Gecko) Chrome/105.0.0.0 Safari/537.36" etag="9gWpWOihtuakN5EN8LCy" version="20.4.0" type="github">
  <diagram id="aQgTgHcntj8IjTMex4k_" name="Page-1">
    <mxGraphModel dx="1018" dy="611" grid="1" gridSize="10" guides="1" tooltips="1" connect="1" arrows="1" fold="1" page="1" pageScale="1" pageWidth="850" pageHeight="1100" math="0" shadow="0">
      <root>
        <mxCell id="0" />
        <mxCell id="1" parent="0" />
        <mxCell id="QZQUjwHL75yCEbag2W13-10" value="TCP 头部格式" style="text;html=1;strokeColor=none;fillColor=#f8cecc;align=center;verticalAlign=middle;whiteSpace=wrap;rounded=0;fontSize=16;gradientColor=none;shadow=0;sketch=0;glass=0;comic=1;" parent="1" vertex="1">
          <mxGeometry x="335" y="40" width="130" height="40" as="geometry" />
        </mxCell>
        <mxCell id="QZQUjwHL75yCEbag2W13-24" value="源端口号(16位)" style="rounded=0;whiteSpace=wrap;html=1;shadow=0;glass=0;comic=1;sketch=0;fontSize=16;fillColor=default;gradientColor=none;" parent="1" vertex="1">
          <mxGeometry x="80" y="120" width="320" height="60" as="geometry" />
        </mxCell>
        <mxCell id="QZQUjwHL75yCEbag2W13-25" value="目标端口号(16位)" style="rounded=0;whiteSpace=wrap;html=1;shadow=0;glass=0;comic=1;sketch=0;fontSize=16;fillColor=default;gradientColor=none;" parent="1" vertex="1">
          <mxGeometry x="400" y="120" width="320" height="60" as="geometry" />
        </mxCell>
        <mxCell id="QZQUjwHL75yCEbag2W13-27" value="序列号(32位)" style="rounded=0;whiteSpace=wrap;html=1;shadow=0;glass=0;comic=1;sketch=0;fontSize=16;fillColor=#dae8fc;strokeColor=#6c8ebf;" parent="1" vertex="1">
          <mxGeometry x="80" y="180" width="640" height="60" as="geometry" />
        </mxCell>
        <mxCell id="QZQUjwHL75yCEbag2W13-29" value="校验和(16位)" style="rounded=0;whiteSpace=wrap;html=1;shadow=0;glass=0;comic=1;sketch=0;fontSize=16;fillColor=default;gradientColor=none;" parent="1" vertex="1">
          <mxGeometry x="80" y="360" width="320" height="60" as="geometry" />
        </mxCell>
        <mxCell id="QZQUjwHL75yCEbag2W13-30" value="紧急指针(16位)" style="rounded=0;whiteSpace=wrap;html=1;shadow=0;glass=0;comic=1;sketch=0;fontSize=16;fillColor=default;gradientColor=none;" parent="1" vertex="1">
          <mxGeometry x="400" y="360" width="320" height="60" as="geometry" />
        </mxCell>
        <mxCell id="QZQUjwHL75yCEbag2W13-32" value="确认应答号(32位)" style="rounded=0;whiteSpace=wrap;html=1;shadow=0;glass=0;comic=1;sketch=0;fontSize=16;fillColor=#ffe6cc;strokeColor=#d79b00;" parent="1" vertex="1">
          <mxGeometry x="80" y="240" width="640" height="60" as="geometry" />
        </mxCell>
        <mxCell id="QZQUjwHL75yCEbag2W13-33" value="首部长度&lt;br&gt;(4位)" style="rounded=0;whiteSpace=wrap;html=1;shadow=0;glass=0;comic=1;sketch=0;fontSize=16;fillColor=default;gradientColor=none;" parent="1" vertex="1">
          <mxGeometry x="80" y="300" width="80" height="60" as="geometry" />
        </mxCell>
        <mxCell id="QZQUjwHL75yCEbag2W13-34" value="保留&lt;br&gt;(6位)" style="rounded=0;whiteSpace=wrap;html=1;shadow=0;glass=0;comic=1;sketch=0;fontSize=16;fillColor=default;gradientColor=none;" parent="1" vertex="1">
          <mxGeometry x="160" y="300" width="120" height="60" as="geometry" />
        </mxCell>
        <mxCell id="QZQUjwHL75yCEbag2W13-35" value="U&lt;br&gt;R&lt;br&gt;G" style="rounded=0;whiteSpace=wrap;html=1;shadow=0;glass=0;comic=1;sketch=0;fontSize=16;fillColor=default;gradientColor=none;" parent="1" vertex="1">
          <mxGeometry x="280" y="300" width="20" height="60" as="geometry" />
        </mxCell>
        <mxCell id="QZQUjwHL75yCEbag2W13-36" value="A&lt;br&gt;C&lt;br&gt;K" style="rounded=0;whiteSpace=wrap;html=1;shadow=0;glass=0;comic=1;sketch=0;fontSize=16;fillColor=#fff2cc;strokeColor=#d6b656;" parent="1" vertex="1">
          <mxGeometry x="300" y="300" width="20" height="60" as="geometry" />
        </mxCell>
        <mxCell id="QZQUjwHL75yCEbag2W13-37" value="P&lt;br&gt;S&lt;br&gt;H" style="rounded=0;whiteSpace=wrap;html=1;shadow=0;glass=0;comic=1;sketch=0;fontSize=16;fillColor=default;gradientColor=none;" parent="1" vertex="1">
          <mxGeometry x="320" y="300" width="20" height="60" as="geometry" />
        </mxCell>
        <mxCell id="QZQUjwHL75yCEbag2W13-38" value="R&lt;br&gt;S&lt;br&gt;T" style="rounded=0;whiteSpace=wrap;html=1;shadow=0;glass=0;comic=1;sketch=0;fontSize=16;fillColor=#fff2cc;strokeColor=#d6b656;" parent="1" vertex="1">
          <mxGeometry x="340" y="300" width="20" height="60" as="geometry" />
        </mxCell>
        <mxCell id="QZQUjwHL75yCEbag2W13-39" value="S&lt;br&gt;Y&lt;br&gt;N" style="rounded=0;whiteSpace=wrap;html=1;shadow=0;glass=0;comic=1;sketch=0;fontSize=16;fillColor=#fff2cc;strokeColor=#d6b656;" parent="1" vertex="1">
          <mxGeometry x="360" y="300" width="20" height="60" as="geometry" />
        </mxCell>
        <mxCell id="QZQUjwHL75yCEbag2W13-40" value="F&lt;br&gt;I&lt;br&gt;N" style="rounded=0;whiteSpace=wrap;html=1;shadow=0;glass=0;comic=1;sketch=0;fontSize=16;fillColor=#fff2cc;strokeColor=#d6b656;" parent="1" vertex="1">
          <mxGeometry x="380" y="300" width="20" height="60" as="geometry" />
        </mxCell>
        <mxCell id="QZQUjwHL75yCEbag2W13-41" value="窗口大小(16位)" style="rounded=0;whiteSpace=wrap;html=1;shadow=0;glass=0;comic=1;sketch=0;fontSize=16;fillColor=default;gradientColor=none;" parent="1" vertex="1">
          <mxGeometry x="400" y="300" width="320" height="60" as="geometry" />
        </mxCell>
        <mxCell id="QZQUjwHL75yCEbag2W13-42" value="选项(长度可变)" style="rounded=0;whiteSpace=wrap;html=1;shadow=0;glass=0;comic=1;sketch=0;fontSize=16;fillColor=default;gradientColor=none;" parent="1" vertex="1">
          <mxGeometry x="80" y="420" width="640" height="60" as="geometry" />
        </mxCell>
        <mxCell id="QZQUjwHL75yCEbag2W13-43" value="数据" style="rounded=0;whiteSpace=wrap;html=1;shadow=0;glass=0;comic=1;sketch=0;fontSize=16;fillColor=#f5f5f5;fontColor=#333333;strokeColor=#666666;" parent="1" vertex="1">
          <mxGeometry x="80" y="480" width="640" height="60" as="geometry" />
        </mxCell>
      </root>
    </mxGraphModel>
  </diagram>
</mxfile>
